<svg xmlns="http://www.w3.org/2000/svg" version="1.2" viewBox="0 0 580 240" preserveAspectRatio="xMidYMid meet">
	<defs>
		<linearGradient id="g1" x2="1" gradientUnits="userSpaceOnUse" gradientTransform="matrix(31.122,-23.236,29.252,39.18,265.619,74.48)">
			<stop offset="0" stop-color="#b76835"/>
			<stop offset="1" stop-color="#f2bc64"/>
		</linearGradient>
		<linearGradient id="g2" x2="1" gradientUnits="userSpaceOnUse" gradientTransform="matrix(-25.531,17.157,-19.39,-28.853,299.155,183.647)">
			<stop offset="0" stop-color="#db9a4d"/>
			<stop offset="1" stop-color="#ffe190"/>
		</linearGradient>
		<linearGradient id="g3" x2="1" gradientUnits="userSpaceOnUse" gradientTransform="matrix(78.316,-89.102,89.713,78.853,479.547,170.921)">
			<stop offset="0" stop-color="#e1674d"/>
			<stop offset="1" stop-color="#ef9055"/>
		</linearGradient>
		<linearGradient id="g4" x2="1" gradientUnits="userSpaceOnUse" gradientTransform="matrix(66.715,-86.798,84.659,65.071,387.021,169.632)">
			<stop offset="0" stop-color="#cf4c44"/>
			<stop offset="1" stop-color="#ef8255"/>
		</linearGradient>
	</defs>
	<style>
		.s0 { fill: #c75142 } 
		.s1 { fill: url(#g1) } 
		.s2 { fill: #f8deb0 } 
		.s3 { fill: url(#g2) } 
		.s4 { fill: #d0824a } 
		.s5 { fill: url(#g3) } 
		.s6 { fill: url(#g4) } 
		.s7 { fill: #65241e } 
	</style>
	<path class="s0" d="m283 29.59c0.25 5.98 0.63 11.32 0.39 17.32 1.48-0.58 2.83-0.89 4.37-1.29-0.91 1.81-1.21 3.86-0.86 5.86l-2.39 0.01c-2.17 2.5-0.67 6.58-1.08 10.63l0.13 33.57 0.34 0.44c4.2 5.44 10.35 11.54 15.17 16.69 18.55 19.82 22.57 53.87 8.73 77.78-0.46 1.02-0.84 1.91-1.39 2.9-5.49 9.46-14.6 18.35-23.56 24.51-0.05-15.91 0.15-30.61-0.33-46.68q3.6 0.05 7.2-0.04l0.5-0.67-0.36-14.78c-2.74 0.1-4.8 0.27-7.54-0.2l0.03-0.4c0.08-0.9 0.35-3.49-0.1-4.18-4.82-7.47-12.06-13.45-17.67-20.38-4.93-5.96-8.74-12.76-11.27-20.07-6.5-18.77-2.91-35.44 5.41-52.79 6.18-12.51 13.67-19.55 24.28-28.23z"/>
	<path class="s1" d="m283 29.59c0.25 5.98 0.63 11.32 0.39 17.32 1.48-0.58 2.83-0.89 4.37-1.29-0.91 1.81-1.21 3.86-0.86 5.86l-2.39 0.01c-2.17 2.5-0.67 6.58-1.08 10.63l0.13 33.57c-4.83-3.92-16.57-15.87-19.84-21.35-2.13-3.56-2.17-13.87-5-16.52 6.18-12.51 13.67-19.55 24.28-28.23z"/>
	<path class="s2" d="m283.39 46.91c1.48-0.58 2.83-0.89 4.37-1.29-0.91 1.81-1.21 3.86-0.86 5.86l-2.39 0.01c-2.17 2.5-0.67 6.58-1.08 10.63-0.61-3.69-0.59-11.52-0.04-15.21z"/>
	<path class="s3" d="m290.68 167.89c0.19 4.02 11.54 22.79 14.22 25.34l1.51 0.27c-5.49 9.46-14.6 18.35-23.56 24.52-0.05-15.92 0.15-30.62-0.33-46.69q3.6 0.05 7.2-0.04l0.5-0.67z"/>
	<path class="s4" d="m290.68 167.89c-0.24-3.15-0.3-6.05-0.36-9.21 6.62 6.64 12.74 14.14 15.61 23.28 0.84 2.67 0.66 6.44 1.87 8.64-0.46 1.02-0.84 1.91-1.39 2.9l-1.51-0.27c-2.68-2.55-14.03-21.32-14.22-25.34z"/>
	<path class="s5" d="m538.15 80.59l21.16-0.03q-18.09 19.5-36.46 38.74c7.37 8.81 16.42 21.48 23.54 30.82l15.97 21.03-21.44 0.15c-10.43-11.92-20.07-26.34-31.22-38.8-4.42 5.17-9.35 9.95-14.15 14.77 0.25 7.93 0.11 16.07 0.06 24.02-5.93-0.15-12.19-0.06-18.14-0.07l-0.06-59.86c0-7.7-0.4-23.01 0.27-30.13 1.24-0.63 3.62-0.47 5.14-0.49l12.71-0.04c0.04 14.03-0.31 30.26 0.37 44.08 14.3-13.96 28.12-29.85 42.25-44.19z"/>
	<path class="s6" d="m418.36 80.75q17.74 0.03 35.48-0.15c0.15 4.91 0.11 10.1 0.15 15.04h-49.48v22.72q21.74 0.07 43.48-0.09l0.02 14.38c-14.21-0.29-29.26-0.01-43.53 0.04 0.01 4.46-0.28 19.63 0.32 23.16 1.37 0.79 2.9 0.54 4.55 0.51l46.2 0.03 0.05 15.02c-7.93-0.35-17.36-0.1-25.42-0.13q-22.04-0.17-44.07-0.07l-0.01-90.44z"/>
	<path class="s7" d="m180.95 80.71l18.1-0.02 0.08 33.31c0.02 16.3 1.87 35.46-10.64 48.01-14.68 14.73-44.83 14.65-59.57 0.02-12.66-12.55-10.86-31.57-10.85-47.97q0.09-16.63-0.08-33.25l18.49-0.03-0.01 35.54c0 10.57-1.47 26.24 5.91 34.02 11.04 11.63 34.26 7.59 37.3-9.74 1.65-9.37 1.23-17.62 1.24-26.73z"/>
	<path class="s7" d="m28.06 80.74l7.82-0.13q12.85 21.05 26.22 41.79l26.02-41.51q9.62 0.06 19.24-0.14c-7.82 11.59-15.93 25.12-23.4 37.01-4.31 7.14-8.9 14.36-13.31 21.45 0.43 9.97 0.12 21.69 0.1 31.78l-18.28 0.04-0.06-31.91c-11.6-19.38-24.43-39.14-36.49-58.36 4.02 0.05 8.11 0 12.15-0.02z"/>
	<path class="s0" d="m289.61 80.66c25.9 0.57 54.09 0.39 80.03 0.1 0.22 4.89 0.18 10.19 0.23 15.13q-15.29 0.13-30.58 0.03 0.18 22.62 0.11 45.24l-0.11 29.94q-9.2-0.04-18.41 0.04l-0.04-75.16-31.32-0.02z"/>
	<path class="s7" d="m225.53 80.78l18.29-0.07q-0.26 37.51-0.08 75.02c12.63-0.23 25.93-0.16 38.58-0.09 2.74 0.47 4.8 0.3 7.54 0.2l0.36 14.78-0.5 0.67q-3.6 0.09-7.2 0.04c-18.17 0.51-38.57-0.14-56.97-0.19z"/>
	<path class="s4" d="m287.76 45.62c2.07-4.16 6.86-6.19 11.3-4.8 4.43 1.39 7.2 5.8 6.53 10.4-0.68 4.6-4.59 8.03-9.24 8.09-4.64 0.07-8.65-3.26-9.45-7.83-0.35-2-0.05-4.05 0.86-5.86z"/>
	<path class="s4" d="m267.91 189.74c3.28-0.75 6.71 0.35 8.93 2.88 2.22 2.53 2.88 6.07 1.72 9.23-1.17 3.15-3.97 5.42-7.3 5.89-4.87 0.7-9.42-2.56-10.31-7.4-0.9-4.83 2.17-9.51 6.96-10.6z"/>
</svg>